<?xml version="1.0"?>
<svg viewBox="0 0 195 136" xmlns="http://www.w3.org/2000/svg" xmlns:xlink="http://www.w3.org/1999/xlink">
<g id="Page-1" stroke="none" stroke-width="1" fill="none" fill-rule="evenodd">
        <g id="Logo" transform="translate(-0.0004, 0.9682)">
            <path d="M325.234318,64.567789 C325.234318,60.3520528 325.755219,56.3169798 326.799127,52.4647809 C327.843056,48.6104349 329.32922,45.0069508 331.257619,41.6564335 C333.183912,38.3038115 335.520506,35.2722078 338.271717,32.5616224 C341.020801,29.8531843 344.112171,27.5231226 347.54589,25.5757531 C350.977461,23.6305095 354.691829,22.1359671 358.686825,21.092126 C362.681821,20.0482849 366.908543,19.5253014 371.362782,19.5253014 C375.778773,19.5253014 379.994865,20.0482849 384.011143,21.092126 C388.025274,22.1359671 391.737494,23.6305095 395.152078,25.5757531 C398.562367,27.5231226 401.645275,29.853163 404.394359,32.5616224 C407.145548,35.2722078 409.492794,38.3038115 411.440349,41.6564335 C413.387883,45.0069296 414.884677,48.6104136 415.928585,52.4647809 C416.97041,56.3170011 417.493437,60.3520528 417.493437,64.567789 C417.493437,71.0306748 416.338949,77.0726227 414.032079,82.6915067 C411.720998,88.3125166 408.521153,93.200074 404.426251,97.3563049 C400.331306,101.51041 395.462493,104.771616 389.821874,107.139924 C384.181254,109.510357 378.028238,110.692385 371.362804,110.692385 C364.699517,110.692385 358.546501,109.510357 352.905881,107.139924 C347.265262,104.771616 342.396449,101.51041 338.303673,97.3563049 C334.206623,93.200074 331.004652,88.3125379 328.695676,82.6915067 C326.388805,77.0726227 325.234318,71.0306748 325.234318,64.567789 M347.516145,64.567789 C347.516145,68.3009559 348.136954,71.7853868 349.382865,75.0147038 C350.626671,78.2482727 352.323301,81.0353922 354.470712,83.3866921 C356.618081,85.7337401 359.13969,87.5790641 362.029078,88.92479 C364.920613,90.2705159 368.031139,90.9423159 371.362782,90.9423159 C374.656177,90.9423159 377.747568,90.2705159 380.639103,88.92479 C383.52849,87.5790641 386.047953,85.7337401 388.195364,83.3866921 C390.342733,81.0353922 392.039404,78.2482727 393.285316,75.0147038 C394.529122,71.7853868 395.152078,68.3009559 395.152078,64.567789 C395.152078,60.9536752 394.529122,57.6032004 393.285316,54.5120489 C392.039404,51.4187926 390.342754,48.7528522 388.195364,46.5014719 C386.047953,44.2543223 383.52849,42.4876797 380.639103,41.2036063 C377.747568,39.917407 374.656177,39.2774962 371.362782,39.2774962 C368.031139,39.2774962 364.920613,39.917407 362.029078,41.2036063 C359.13969,42.4876797 356.618081,44.2543435 354.470712,46.5014719 C352.323301,48.7528522 350.626671,51.4187926 349.382865,54.5120489 C348.136954,57.6032004 347.516145,60.9536752 347.516145,64.567789" id="Shape" fill="#50545D" fill-rule="nonzero"></path>
            <path d="M427.839796,21.0313239 L449.400845,21.0313239 L449.400845,76.7311953 C449.400845,79.0591097 449.762286,81.1063989 450.483044,82.8730628 C451.205928,84.6397266 452.230743,86.1236392 453.555279,87.3290525 C454.879857,88.5323185 456.485105,89.4379729 458.373107,90.0396166 C460.258962,90.6412602 462.365998,90.943145 464.696214,90.943145 C467.024325,90.943145 469.131318,90.6412602 471.01932,90.0396166 C472.905217,89.4379729 474.512571,88.5323185 475.837149,87.3290525 C477.161727,86.1236392 478.186521,84.6397266 478.909383,82.8730628 C479.630141,81.1063989 479.991583,79.0591097 479.991583,76.7311953 L479.991583,21.0313239 L501.550527,21.0313239 L501.550527,76.7311953 C501.550527,81.7080425 500.678814,86.2745816 498.933263,90.4308125 C497.185606,94.5849174 494.71715,98.167142 491.525852,101.177486 C488.332407,104.189956 484.469231,106.528501 479.932073,108.193119 C475.394914,109.859863 470.358094,110.693235 464.817446,110.693235 C459.19594,110.693235 454.105988,109.859863 449.549716,108.193119 C444.993401,106.528501 441.108986,104.189956 437.896405,101.177486 C434.683825,98.167142 432.206864,94.5849174 430.459207,90.4308125 C428.713656,86.2745816 427.839796,81.7080425 427.839796,76.7311953 L427.839796,21.0313239 L427.839796,21.0313239 Z" id="Path" fill="#50545D"></path>
            <path d="M522.797164,81.6687125 C524.763812,83.3949833 526.892066,84.9193102 529.179802,86.2437554 C530.145043,86.8071532 531.186867,87.3705297 532.313716,87.9296544 C533.436311,88.493031 534.631196,88.984104 535.896242,89.4071892 C537.159141,89.8281271 538.45608,90.170405 539.780679,90.4297708 C541.105257,90.6912625 542.468127,90.8230714 543.875582,90.8230714 C544.998178,90.8230714 546.112311,90.7018923 547.217877,90.46166 C548.321359,90.2193018 549.314282,89.8281271 550.198731,89.2860101 C551.081095,88.743893 551.793327,88.0210915 552.337637,87.1175418 C552.877674,86.2161393 553.149797,85.1000159 553.149797,83.7755495 C553.149797,82.4510831 552.577847,81.2860629 551.431864,80.2847408 C550.288028,79.2812927 548.782771,78.3076079 546.915997,77.3636864 C545.049268,76.4197649 542.931602,75.4779694 540.563095,74.5340479 C538.194587,73.5901264 535.764444,72.5462853 533.276852,71.4025246 C530.785029,70.2587639 528.35699,68.955557 525.988504,67.486526 C523.619997,66.0238729 521.502373,64.3061059 519.635611,62.3396028 C517.768891,60.3709738 516.263571,58.0940821 515.119735,55.5046758 C513.975899,52.9152909 513.403928,49.9346887 513.403928,46.5608072 C513.403928,42.4683548 514.205499,38.7628252 515.810705,35.4527221 C517.418059,32.1404931 519.625001,29.3002249 522.435722,26.9319174 C525.246485,24.5635886 528.548342,22.7374194 532.343481,21.4533461 C536.136495,20.1671467 540.220788,19.5251101 544.59636,19.5251101 C546.967036,19.5251101 549.195219,19.6654014 551.28093,19.946048 C553.368767,20.2287993 555.297208,20.6072182 557.064,21.0919347 C558.830791,21.5723992 560.455175,22.1145163 561.94136,22.7182859 C563.425398,23.3199295 564.749933,23.9215732 565.917221,24.5232168 C568.68544,26.0071294 571.03477,27.6759996 572.963211,29.5213236 L563.86759,47.1645768 C562.100799,45.7189313 560.174505,44.4348579 558.086668,43.3102307 C556.281585,42.3471757 554.202231,41.454277 551.854985,40.6294087 C549.505655,39.8088135 547.007412,39.3963793 544.356172,39.3963793 C543.271782,39.3963793 542.168343,39.5281882 541.045747,39.787554 C539.921004,40.0490458 538.917471,40.459354 538.033001,41.0227305 C537.148553,41.5861071 536.427796,42.2961742 535.864372,43.1614355 C535.303052,44.0245709 535.022425,45.0769158 535.022425,46.3205962 C535.022425,47.7258486 535.594353,48.9397657 536.738189,49.9644732 C537.882025,50.9870549 539.378841,51.9501099 541.22432,52.8536383 C543.071926,53.7571668 545.189593,54.6521702 547.57934,55.5344391 C549.966961,56.418834 552.397126,57.4116523 554.865583,58.51502 C557.333976,59.6205137 559.764162,60.8748237 562.151826,62.2800762 C564.539447,63.6853287 566.659218,65.3605767 568.506781,67.3058203 C570.352282,69.2553158 571.846951,71.5322075 572.992955,74.1407473 C574.136791,76.751413 574.708762,79.802129 574.708762,83.295085 C574.708762,86.9878589 574.026254,90.4892973 572.661279,93.8015051 C571.296305,97.11586 569.289239,100.015655 566.640083,102.505141 C563.988779,104.994628 560.73795,106.980265 556.8833,108.464177 C553.028587,109.950216 548.612639,110.692172 543.633203,110.692172 C541.024464,110.692172 538.575143,110.511467 536.287429,110.150055 C533.999736,109.79077 531.850219,109.318809 529.843154,108.734173 C527.836089,108.153789 525.988483,107.490493 524.302463,106.748536 C522.616443,106.00658 521.089883,105.23486 519.727055,104.431252 C516.512328,102.583802 513.744108,100.476986 511.415997,98.1065524 L522.797164,81.6687125 Z" id="Path" fill="#50545D"></path>
            <rect id="Rectangle" fill="#50545D" x="586.440485" y="21.0321742" width="21.558944" height="88.1567392"></rect>
            <path d="M625.633136,21.0313239 L647.493947,21.0313239 L671.88279,62.2194654 C672.724737,63.6651109 673.590092,65.2595729 674.472393,67.0049773 C675.354758,68.7525288 676.158413,70.3894885 676.881297,71.9138154 C677.723308,73.7187464 678.526963,75.5066485 679.290264,77.2733336 L679.530474,77.2733336 C679.36891,75.4662767 679.209429,73.6592198 679.050012,71.8521629 C678.928801,70.3278573 678.818243,68.6930023 678.718315,66.9454507 C678.61626,65.1979204 678.567338,63.6247179 678.567338,62.2194654 L678.567338,21.0313239 L700.126303,21.0313239 L700.126303,109.188063 L678.446191,109.188063 L653.876649,68.1189747 C652.994285,66.6754551 652.120424,65.0788672 651.257195,63.3313369 C650.394029,61.5859325 649.600962,59.9510775 648.878078,58.4246459 C648.036131,56.660108 647.232476,54.8721847 646.469175,53.0651278 L646.228901,53.0651278 C646.388382,54.9125777 646.549946,56.7387681 646.711511,58.545825 C646.830574,60.0701307 646.941133,61.6964819 647.041124,63.4227527 C647.141053,65.1490235 647.192037,66.7137222 647.192037,68.1189747 L647.192037,109.188063 L625.633136,109.188063 L625.633136,21.0313239 L625.633136,21.0313239 Z" id="Path" fill="#50545D"></path>
            <path d="M711.858536,64.9289878 C711.858536,60.6728373 712.379438,56.5888887 713.423346,52.6728901 C714.467275,48.7611434 715.953439,45.1172663 717.881795,41.7455108 C719.808089,38.3737552 722.144683,35.323018 724.895914,32.5911731 C727.644999,29.8635802 730.736411,27.5335398 734.170087,25.6074297 C737.601616,23.6812984 741.326636,22.1867773 745.342893,21.1216767 C749.354876,20.0587021 753.611428,19.5250888 758.108169,19.5250888 C760.91889,19.5250888 763.557416,19.6972907 766.028019,20.0374426 C768.496412,20.3775945 770.794736,20.8197919 772.923012,21.361909 C775.051288,21.904026 776.996717,22.5375589 778.763509,23.2582557 C780.5303,23.9810785 782.116413,24.7039013 783.521806,25.426724 C786.853428,27.1508689 789.683284,29.0982384 792.013542,31.2666855 L781.655022,47.4047665 C779.807438,45.9208539 777.77909,44.575128 775.572189,43.3697148 C773.645896,42.3279996 771.38799,41.3840781 768.798344,40.5400763 C766.20874,39.6982003 763.34695,39.2772836 760.217331,39.2772836 C755.558962,39.2772836 751.585249,39.9597134 748.291855,41.3224469 C745.000608,42.6894323 742.308929,44.5134967 740.223175,46.8031441 C738.135338,49.0927915 736.598147,51.7417243 735.615876,54.7520685 C734.631521,57.7624127 734.140343,60.893936 734.140343,64.1466384 C734.140343,68.3602699 734.812221,72.1253261 736.15806,75.4354292 C737.501752,78.7476582 739.328118,81.5475334 741.637093,83.8371808 C743.946069,86.1247022 746.635643,87.8807363 749.707856,89.1052831 C752.780133,90.3298299 756.020375,90.9421033 759.43279,90.9421033 C762.043676,90.9421033 764.431339,90.6104552 766.599969,89.949285 C768.768663,89.2859888 770.654518,88.5525575 772.261829,87.7489275 C774.147747,86.7858724 775.833767,85.7016383 777.319888,84.498351 L777.319888,77.7548398 L764.852313,77.7548398 L764.852313,59.3887639 L796.469971,59.3887639 L796.469971,109.187 L778.463809,109.187 L778.463809,106.718773 L778.463809,105.364543 C778.463809,104.903212 778.482945,104.512038 778.523299,104.191019 C778.523299,103.789215 778.542434,103.40867 778.582873,103.047259 L778.342599,103.047259 C776.616161,104.490778 774.587877,105.776977 772.261829,106.899479 C770.25268,107.862534 767.81401,108.734173 764.943715,109.520774 C762.07342,110.303123 758.809813,110.692172 755.157145,110.692172 C749.497348,110.692172 744.065111,109.658961 738.868853,107.590412 C733.668385,105.526115 729.061,102.532779 725.046869,98.6210321 C721.030655,94.7050335 717.830831,89.9195217 715.441084,84.2581187 C713.053378,78.5988417 711.858536,72.1529635 711.858536,64.9289878" id="Path" fill="#50545D"></path>
            <polygon id="Path" fill="#50545D" points="315.174753 82.7982293 315.174753 21.0308987 294.872372 21.0308987 294.88936 21.78138 294.88936 57.3804009 261.160456 57.3804009 261.160456 21.1244617 241.228 21.1244617 241.228 55.7327902 241.491661 73.558875 241.491661 108.97719 261.368816 108.97719 261.368816 78.2359634 277.982406 67.268191 294.891507 78.8248514 294.891507 82.7982293 294.923399 82.7982293 295.019075 101.893527 294.891507 109.313069 315.174753 109.285432 315.136482 91.4827535 315.136482 82.7982293"></polygon>
            <g id="Group" transform="translate(822.3856, 21.4137)" fill="#0CB4C1">
                <path d="M1.13603832e-13,1.43873618 L27.8898746,1.43873618 C34.3679334,1.43873618 40.265644,2.40827536 45.5840909,4.34737496 C50.901496,6.288558 55.4693345,9.09547011 59.2886907,12.7743616 C63.107005,16.453253 66.0563919,20.9605207 68.1357882,26.2982266 C70.2141639,31.6359325 71.2543936,37.7231206 71.2543936,44.5597908 C71.2543936,51.4379809 70.2141639,57.5542519 68.1357882,62.9127071 C66.0563706,68.2711836 63.107005,72.7992004 59.2886907,76.496779 C55.4693345,80.1943576 50.901496,83.0033531 45.5840909,84.9216822 C40.2656653,86.8420947 34.3679334,87.8012592 27.8898746,87.8012592 L1.13603832e-13,87.8012592 L1.13603832e-13,1.43873618 Z M26.9897994,80.1839829 C32.308225,80.1839829 37.146018,79.4158137 41.5051983,77.8753295 C45.8633367,76.3369289 49.5819994,74.0573372 52.6611439,71.0386593 C55.7392465,68.0199814 58.1290789,64.2912577 59.8285147,59.8545928 C61.5279718,55.4158446 62.3771689,50.3168828 62.3771689,44.5597908 C62.3771689,38.8026989 61.5279718,33.7161951 59.8285147,29.296134 C58.1290576,24.8802184 55.7299128,21.1701818 52.6310379,18.1722744 C49.5321629,15.1722836 45.8031247,12.90515 41.4449863,11.3646659 C37.0868479,9.82626517 32.2687853,9.05601249 26.9897994,9.05601249 L8.45676156,9.05601249 L8.45676156,80.1839829 L26.9897994,80.1839829 L26.9897994,80.1839829 Z" id="Shape" fill-rule="nonzero"></path>
                <polygon id="Path" points="87.8564602 1.43873618 96.3132217 1.43873618 96.3132217 87.8012805 87.8564602 87.8012805"></polygon>
                <path d="M118.436164,1.43873618 L143.987084,1.43873618 C146.185884,1.43873618 148.104375,1.4906306 149.744662,1.59029511 C151.383907,1.68995961 152.834182,1.84980974 154.093467,2.06988801 C155.352751,2.28996628 156.47186,2.53908502 157.451878,2.81937017 C158.431896,3.09965532 159.341305,3.41937684 160.181168,3.77853471 C162.220083,4.69826289 164.039964,5.87748444 165.639748,7.31624189 C167.238491,8.7570615 168.597427,10.4262718 169.717599,12.3238517 C170.836729,14.2234936 171.697344,16.3328393 172.296359,18.6518673 C172.896417,20.9708953 173.196435,23.4290241 173.196435,26.0283373 C173.196435,28.947372 172.807119,31.6753901 172.026447,34.2144964 C171.246796,36.7536027 170.138062,39.033173 168.698142,41.0511666 C167.258221,43.0712436 165.539055,44.790265 163.53958,46.2103353 C161.540105,47.6283222 159.320533,48.6788388 156.881927,49.3577395 L156.881927,49.598567 C157.082293,49.8373111 157.281618,50.1175963 157.481984,50.4373178 C157.681309,50.7591227 157.911781,51.1265931 158.172359,51.5480412 C158.431896,51.9674273 158.741269,52.4573735 159.101499,53.0158604 L177.875384,87.8012805 L168.158318,87.8012805 L148.664993,51.4566892 L126.892947,51.4566892 L126.892947,87.8012805 L118.436164,87.8012805 L118.436164,1.43873618 L118.436164,1.43873618 Z M147.405708,43.8414751 C150.004199,43.8414751 152.362862,43.4304015 154.482761,42.6103378 C156.601618,41.7923363 158.401769,40.6234894 159.881129,39.1037758 C161.360489,37.5840622 162.49935,35.7446059 163.299752,33.5854492 C164.099134,31.4262926 164.499846,28.9868296 164.499846,26.2691861 C164.499846,22.6691886 163.818825,19.5923872 162.459889,17.0325104 C161.100953,14.4747383 159.16169,12.5148682 156.6421,11.1550047 C156.002603,10.8352832 155.312227,10.5467069 154.573079,10.2851088 C153.832888,10.0255942 152.98367,9.80551591 152.024425,9.62489526 C151.064137,9.44635804 149.963696,9.30517374 148.725183,9.20550924 C147.485629,9.10584474 146.025999,9.05603375 144.347314,9.05603375 L126.892925,9.05603375 L126.892925,43.8414751 L147.405708,43.8414751 L147.405708,43.8414751 Z" id="Shape" fill-rule="nonzero"></path>
                <polygon id="Path" points="192.621234 1.43873618 241.263698 1.43873618 241.263698 9.05603375 201.077996 9.05603375 201.077996 40.542512 233.886605 40.542512 233.886605 48.0996027 201.077996 48.0996027 201.077996 80.1840042 243.483248 80.1840042 243.483248 87.8013017 192.621234 87.8013017"></polygon>
                <path d="M253.662302,44.0802192 C253.662302,39.9217561 254.161644,35.9335177 255.161392,32.1155254 C256.160099,28.2975331 257.580289,24.7598259 259.419879,21.5003204 C261.258449,18.2428772 263.478,15.2927186 266.077532,12.6539691 C268.676086,10.0152195 271.58497,7.75639843 274.804269,5.8775057 C278.022526,3.99861298 281.501362,2.54948091 285.240775,1.53010948 C288.979147,0.510738057 292.90751,0 297.026884,0 C299.584872,0 301.994435,0.159871387 304.253447,0.4795929 C306.512458,0.799314414 308.611585,1.2207626 310.55189,1.73979186 C312.490111,2.25882112 314.270531,2.85882779 315.890046,3.53770718 C317.509561,4.21866999 318.977504,4.89757064 320.298021,5.57853346 C323.335642,7.21659864 325.935175,9.07680427 328.094513,11.1550047 L323.53705,17.3916683 C321.498136,15.6331894 319.137367,14.0553311 316.458956,12.6539691 C314.180214,11.453977 311.430172,10.3557116 308.212936,9.355006 C304.993637,8.35638384 301.344541,7.85604167 297.26669,7.85604167 C292.188071,7.85604167 287.519518,8.78614448 283.261031,10.6442667 C279.002544,12.5044723 275.333718,15.0539532 272.255615,18.2927094 C269.175429,21.5314656 266.776263,25.3494579 265.058075,29.7466864 C263.337866,34.1459983 262.478273,38.8836976 262.478273,43.9598267 C262.478273,49.1189954 263.337866,53.9771296 265.058075,58.5342082 C266.776284,63.0912868 269.185826,67.0608381 272.285721,70.4386952 C275.383554,73.8186144 279.082487,76.4968215 283.381455,78.4753575 C287.679381,80.4538934 292.387395,81.4442031 297.506496,81.4442031 C299.665835,81.4442031 301.734877,81.2843318 303.71358,80.9646102 C305.693325,80.6448887 307.54227,80.2151281 309.262478,79.6753283 C310.980624,79.1355285 312.58028,78.5147726 314.06081,77.8151227 C315.539129,77.1175562 316.878356,76.4054269 318.078449,75.6870899 C320.877306,74.007505 323.356393,72.0684054 325.515753,69.8697911 L330.434509,75.8656272 C327.994734,78.3860463 325.135793,80.6240969 321.857324,82.5839671 C320.457906,83.4227178 318.888228,84.2427815 317.148289,85.0420959 C315.409392,85.8434725 313.521007,86.5618095 311.481029,87.2012526 C309.442115,87.8406956 307.242273,88.3493502 304.883589,88.731362 C302.523884,89.1112904 300.025045,89.3002235 297.386073,89.3002235 C293.106813,89.3002235 289.068424,88.7708197 285.270881,87.7119906 C281.471256,86.6531616 277.952981,85.1417604 274.713951,83.1839737 C271.475964,81.2241036 268.556683,78.8760139 265.957108,76.1355377 C263.357576,73.3992071 261.1484,70.349384 259.329561,66.9902141 C257.50968,63.6310441 256.110262,60.0248176 255.131286,56.1653055 C254.151269,52.307898 253.662302,48.2781399 253.662302,44.0802192 Z" id="Path"></path>
                <polygon id="Path" points="365.14813 9.05603375 334.080501 9.05603375 334.080501 1.43873618 404.614392 1.43873618 404.614392 9.05603375 373.665103 9.05603375 373.665103 87.8012805 365.14813 87.8012805"></polygon>
            </g>
            <path d="M191.908067,57.3613099 C187.757333,30.9548087 167.148407,7.71743888 141.009293,2.31999378 C124.579315,-1.07261735 91.2537585,0.30240413 83.5595117,0.150887724 C82.4948103,0.129904604 80.4294677,0.256398587 80.4294677,0.256398587 L80.4294677,54.4457618 L26.7666622,54.4457618 L26.7666622,0.112811972 L-2.8400958e-14,0.112811972 L-2.8400958e-14,135 L27.0841144,135 L27.0841144,88.6045795 L53.680665,72.7305414 L80.420049,89.4055734 L80.4307859,134.95155 C80.4307859,134.95155 101.990495,135.056784 112.346294,134.910795 C120.519727,134.795739 128.835101,135.248842 136.834788,133.923143 C173.436581,127.857576 197.489878,92.8695952 191.908067,57.3613099 Z M160.600632,86.501144 C153.328103,100.232821 141.343775,107.203192 125.804688,107.785681 C120.02991,108.002145 113.918864,107.82061 107.605431,107.82061 L107.605431,81.2345724 L107.663644,54.4356422 L107.663644,27.7974551 C127.554534,26.333165 146.244076,26.9555154 158.531973,45.4368603 C167.274954,58.5869622 167.945705,72.6333855 160.600632,86.501144 Z" id="Shape" fill="#0CB4C1" fill-rule="nonzero"></path>
        </g>
    </g>

</svg>